<svg width="176" height="26" viewBox="0 0 176 26" fill="none" xmlns="http://www.w3.org/2000/svg">
<path d="M12.4422 23.47L9.97219 22.34L10.7722 20.69L1.38219 14.85V12.61L9.22219 7.75L10.6022 9.93L4.11219 13.72L11.9122 18.31L18.9722 3.66L21.4222 4.79L12.4422 23.47ZM166.696 7.75L174.516 12.59V14.85L166.726 19.69L165.296 17.54L171.796 13.72L165.296 10.02L166.696 7.75Z" fill="#6500E7"/>
<path d="M35.1044 13.04C35.1044 14.4733 34.9177 15.6467 34.5444 16.56C34.171 17.4733 33.6744 18.18 33.0544 18.68C32.441 19.1733 31.7644 19.5167 31.0244 19.71C30.2844 19.9033 29.5444 20 28.8044 20H25.5544V6.22H28.5844C29.4044 6.22 30.201 6.31 30.9744 6.49C31.7477 6.67 32.4444 7.00333 33.0644 7.49C33.691 7.97 34.1877 8.65667 34.5544 9.55C34.921 10.4433 35.1044 11.6067 35.1044 13.04ZM33.0044 13.04C33.0044 11.8867 32.8844 10.96 32.6444 10.26C32.411 9.56 32.0977 9.03333 31.7044 8.68C31.311 8.32667 30.8777 8.09 30.4044 7.97C29.9377 7.85 29.471 7.79 29.0044 7.79H27.5344V18.45H29.0244C29.511 18.45 29.991 18.3733 30.4644 18.22C30.9377 18.0667 31.3644 17.7933 31.7444 17.4C32.131 17.0067 32.4377 16.4567 32.6644 15.75C32.891 15.0433 33.0044 14.14 33.0044 13.04ZM42.3666 7.78V12.21H47.4266V13.78H42.3666V18.45H48.5566V20H40.3766V6.22H48.4066L48.1766 7.78H42.3666ZM58.0088 17.93L61.5488 6.22H63.5588L59.0488 20H56.8888L52.3788 6.22H54.5088L58.0088 17.93ZM90.8431 16.05C90.8431 16.81 90.6931 17.4433 90.3931 17.95C90.0998 18.4567 89.6998 18.86 89.1931 19.16C88.6931 19.46 88.1298 19.6767 87.5031 19.81C86.8831 19.9367 86.2465 20 85.5931 20H81.7531V6.22H85.3031C85.9231 6.22 86.5265 6.27667 87.1131 6.39C87.6998 6.49667 88.2298 6.68333 88.7031 6.95C89.1765 7.21 89.5498 7.56667 89.8231 8.02C90.1031 8.46667 90.2431 9.02667 90.2431 9.7C90.2431 10.28 90.1198 10.7767 89.8731 11.19C89.6331 11.5967 89.3198 11.9267 88.9331 12.18C88.5465 12.4267 88.1331 12.6 87.6931 12.7C88.1931 12.7867 88.6831 12.9467 89.1631 13.18C89.6498 13.4067 90.0498 13.75 90.3631 14.21C90.6831 14.6633 90.8431 15.2767 90.8431 16.05ZM88.2231 9.83C88.2231 9.08333 87.9898 8.55333 87.5231 8.24C87.0631 7.92 86.4265 7.76 85.6131 7.76H83.7331V12.02H85.7731C86.5665 12.02 87.1731 11.85 87.5931 11.51C88.0131 11.1633 88.2231 10.6033 88.2231 9.83ZM88.7631 16.08C88.7631 15.42 88.6331 14.91 88.3731 14.55C88.1198 14.1833 87.7765 13.93 87.3431 13.79C86.9165 13.65 86.4431 13.58 85.9231 13.58H83.7331V18.41H85.8331C86.2798 18.41 86.7265 18.3533 87.1731 18.24C87.6265 18.12 88.0031 17.8933 88.3031 17.56C88.6098 17.2267 88.7631 16.7333 88.7631 16.08ZM103.975 6.22V7.77H100.945V18.44H103.975V20H95.9153V18.44H98.9453V7.77H95.9153V6.22H103.975ZM115.688 20L111.038 8.05C111.051 8.28333 111.078 8.68333 111.118 9.25C111.164 9.81 111.208 10.4567 111.248 11.19C111.288 11.9167 111.308 12.6433 111.308 13.37V20H109.508V6.22H112.138L116.838 18.2C116.824 17.9733 116.794 17.5967 116.748 17.07C116.701 16.5367 116.658 15.9067 116.618 15.18C116.584 14.4533 116.568 13.6767 116.568 12.85V6.22H118.368V20H115.688ZM133.05 13.04C133.05 14.4733 132.863 15.6467 132.49 16.56C132.116 17.4733 131.62 18.18 131 18.68C130.386 19.1733 129.71 19.5167 128.97 19.71C128.23 19.9033 127.49 20 126.75 20H123.5V6.22H126.53C127.35 6.22 128.146 6.31 128.92 6.49C129.693 6.67 130.39 7.00333 131.01 7.49C131.636 7.97 132.133 8.65667 132.5 9.55C132.866 10.4433 133.05 11.6067 133.05 13.04ZM130.95 13.04C130.95 11.8867 130.83 10.96 130.59 10.26C130.356 9.56 130.043 9.03333 129.65 8.68C129.256 8.32667 128.823 8.09 128.35 7.97C127.883 7.85 127.416 7.79 126.95 7.79H125.48V18.45H126.97C127.456 18.45 127.936 18.3733 128.41 18.22C128.883 18.0667 129.31 17.7933 129.69 17.4C130.076 17.0067 130.383 16.4567 130.61 15.75C130.836 15.0433 130.95 14.14 130.95 13.04ZM140.312 7.78V12.21H145.372V13.78H140.312V18.45H146.502V20H138.322V6.22H146.352L146.122 7.78H140.312ZM160.744 10.13C160.744 11.1633 160.427 11.9967 159.794 12.63C159.167 13.2567 158.394 13.69 157.474 13.93L161.484 20H159.134L155.504 14.19H153.794V20H151.804V6.22H155.474C157.201 6.22 158.511 6.55 159.404 7.21C160.297 7.86333 160.744 8.83667 160.744 10.13ZM158.634 10.13C158.634 9.28333 158.387 8.67333 157.894 8.3C157.407 7.92667 156.657 7.74 155.644 7.74H153.794V12.68H155.664C156.611 12.68 157.341 12.4867 157.854 12.1C158.374 11.7067 158.634 11.05 158.634 10.13Z" fill="white"/>
</svg>
